<svg width="148" height="148" viewBox="0 0 148 148" fill="none" xmlns="http://www.w3.org/2000/svg">
<path d="M91.9573 7.34351C128.749 17.2722 150.528 55.1852 140.6 92.0174C130.631 128.809 92.718 150.589 55.8859 140.66C19.0938 130.691 -2.68524 92.7781 7.28346 55.9459C17.2121 19.1538 55.1252 -2.62518 91.9573 7.34351Z" fill="#C16E00"/>
<path d="M91.9573 7.34351C128.749 17.2722 150.528 55.1852 140.6 92.0174C130.631 128.809 92.718 150.589 55.8859 140.66C19.0938 130.691 -2.68524 92.7781 7.28346 55.9459C17.2121 19.1538 55.1252 -2.62518 91.9573 7.34351Z" fill="#FBC02D"/>
<g opacity="0.5">
<path opacity="0.7" d="M21.2557 29.2827L89.4752 141.26C87.4468 141.741 85.3917 142.128 83.3099 142.421C76.5039 143.342 69.4177 143.262 62.3316 142.061L8.12427 53.0635C10.2862 46.1775 13.4889 39.8519 17.4524 34.2471C18.6535 32.5122 19.9212 30.8574 21.2557 29.2827Z" fill="white"/>
<path opacity="0.7" d="M25.7397 24.5186L95.7608 139.499C94.5063 139.926 93.2252 140.313 91.9174 140.66L22.9373 27.4011C23.8447 26.4135 24.7789 25.4527 25.7397 24.5186Z" fill="white"/>
</g>
<path opacity="0.7" d="M86.953 33.1259C108.812 39.0111 121.703 61.4706 115.818 83.3297C112.735 94.6596 105.209 103.587 95.6406 108.712C104.248 103.427 110.894 94.9799 113.736 84.4907C119.662 62.6717 106.73 40.172 84.9112 34.2869C74.4221 31.4444 63.7728 32.9658 54.925 37.6899C64.1731 32.045 75.6631 30.0432 86.953 33.1259Z" fill="white"/>
<path d="M63.052 114.197C40.8727 108.191 27.7412 85.3315 33.7465 63.1121C39.7117 40.9327 62.6117 27.8013 84.791 33.8065C107.01 39.7717 120.142 62.6717 114.137 84.8511C108.131 107.07 85.2714 120.202 63.052 114.197Z" fill="#F9A825"/>
<path opacity="0.7" d="M42.0738 12.7083C27.9014 21.636 16.9319 35.6883 12.2478 53.1035C2.27909 89.9356 24.0581 127.849 60.8502 137.777C78.2654 142.501 95.9208 140.099 110.774 132.373C95 142.301 75.3028 145.904 55.8859 140.66C19.0938 130.691 -2.68524 92.7781 7.28346 55.946C12.528 36.5691 25.5394 21.3158 42.0738 12.7083Z" fill="white"/>
<path d="M64.2532 109.753C44.516 104.428 32.8258 84.0504 38.1504 64.3132C43.5151 44.576 63.8528 32.8858 83.5901 38.2105C103.367 43.5351 115.058 63.9129 109.693 83.6501C104.368 103.427 84.0304 115.078 64.2532 109.753Z" fill="#FDD835"/>
<path d="M91.9573 7.34355C128.749 17.2722 150.528 55.1853 140.6 92.0174C135.555 110.634 123.345 125.407 107.731 134.174C106.797 134.708 105.836 135.215 104.849 135.696C104.261 136.016 103.648 136.323 103.007 136.616C100.658 137.711 98.2428 138.671 95.7606 139.499C94.5062 139.926 93.2251 140.313 91.9173 140.66C91.1166 140.873 90.3025 141.074 89.4751 141.26C87.4467 141.741 85.3916 142.128 83.3098 142.421C76.5038 143.342 69.4177 143.262 62.3315 142.061C60.1963 141.687 58.0477 141.22 55.8859 140.66C19.0938 130.691 -2.68524 92.7781 7.28346 55.986C7.55036 54.9984 7.8306 54.0243 8.12419 53.0634C10.2861 46.1774 13.4889 39.8519 17.4523 34.247C18.6534 32.5122 19.9211 30.8574 21.2556 29.2827C21.8161 28.6421 22.3766 28.0149 22.9371 27.4011C23.8446 26.4135 24.7787 25.4527 25.7396 24.5185C27.6079 22.7036 29.5696 20.9955 31.6247 19.3941C32.1585 18.967 32.7056 18.5533 33.2661 18.153C34.1469 17.5124 35.041 16.8986 35.9485 16.3114C51.8824 5.82223 72.1 1.97887 91.9573 7.34355Z" stroke="#E2882D" stroke-width="8.5" stroke-miterlimit="10"/>
<path d="M49.9207 71.2392L51.9624 63.7527C52.0425 63.4057 52.2293 63.1521 52.5229 62.992C52.8165 62.8052 53.1368 62.7651 53.4838 62.8719L54.8449 63.2322C55.1919 63.3123 55.5389 63.2722 55.8859 63.1121C56.2328 62.9786 56.4864 62.7518 56.6465 62.4315C58.1678 59.7091 60.3297 57.3337 63.1322 55.3053C63.3991 55.0918 63.706 55.0117 64.053 55.0651C64.3999 55.1452 64.6802 55.3186 64.8937 55.5855L69.4577 61.0303C69.6712 61.3239 69.7646 61.6442 69.7379 61.9911C69.7112 62.3381 69.5644 62.6184 69.2976 62.8319C67.7495 64.2731 66.5485 65.6744 65.6944 67.0355C64.8403 68.3967 64.2398 69.7045 63.8928 70.959C63.7861 71.3326 63.6793 71.7597 63.5726 72.2401C63.4658 72.7472 63.4124 73.2276 63.4124 73.6813C63.4124 74.1617 63.5058 74.5754 63.6927 74.9224C63.8795 75.2961 64.2131 75.5496 64.6935 75.6831C65.174 75.7898 65.6944 75.5496 66.2549 74.9625C66.8154 74.3486 67.3492 73.6146 67.8563 72.7605C68.3634 71.9331 68.8171 71.1191 69.2175 70.3184C69.5911 69.5177 69.818 68.9972 69.8981 68.757C70.4853 67.6094 71.1925 66.3683 72.0199 65.0338C72.874 63.726 73.9149 62.5516 75.1427 61.5107C76.3971 60.4965 77.8517 59.7492 79.5065 59.2688C81.1879 58.815 83.1096 58.8818 85.2715 59.4689C88.5543 60.3497 90.863 61.9378 92.1975 64.2331C93.532 66.5284 94.0658 69.2641 93.7989 72.4403C93.7722 72.8139 93.8656 73.1475 94.0792 73.4411C94.266 73.7614 94.5329 73.9616 94.8799 74.0417L96.3612 74.442C96.6814 74.5488 96.935 74.7489 97.1218 75.0425C97.282 75.3361 97.322 75.6564 97.2419 76.0033L95.2001 83.4899C95.1201 83.8102 94.9332 84.0637 94.6397 84.2506C94.3194 84.4107 93.9991 84.4507 93.6788 84.3707L91.597 83.8102C91.25 83.7301 90.9031 83.7568 90.5561 83.8902C90.1824 84.0237 89.9022 84.2372 89.7154 84.5308C88.8079 86.0254 87.7803 87.3466 86.6327 88.4943C85.485 89.6419 84.3106 90.6428 83.1096 91.4969C82.7893 91.7104 82.4557 91.7904 82.1087 91.7371C81.7351 91.657 81.4415 91.4835 81.228 91.2166L76.664 85.8119C76.4505 85.5183 76.357 85.1981 76.3837 84.8511C76.4104 84.5041 76.5439 84.2105 76.7841 83.9703C78.4389 82.4757 79.8534 80.9276 81.0278 79.3262C82.1754 77.7248 82.9628 76.1501 83.3898 74.6021C83.7902 73.1075 83.8836 71.9198 83.6701 71.039C83.4566 70.1316 82.9228 69.5711 82.0687 69.3576C81.6416 69.2241 81.2546 69.2908 80.9077 69.5577C80.5607 69.8246 80.2271 70.225 79.9068 70.7588C79.5865 71.2659 79.2796 71.8798 78.986 72.6004C78.6924 73.2943 78.3588 74.015 77.9851 74.7623C77.6382 75.4562 77.2378 76.2702 76.7841 77.2044C76.3304 78.1652 75.7832 79.1261 75.1427 80.0869C74.5021 81.0211 73.7815 81.9285 72.9808 82.8093C72.1534 83.6901 71.2059 84.424 70.1383 85.0112C69.0707 85.5984 67.8963 85.972 66.6152 86.1322C65.3074 86.319 63.8661 86.1989 62.2914 85.7719C60.7434 85.3448 59.4223 84.7577 58.328 84.0103C57.2337 83.263 56.3396 82.3956 55.6456 81.4081C54.9517 80.4472 54.4579 79.4063 54.1643 78.2853C53.8441 77.1644 53.6439 75.99 53.5638 74.7623C53.5638 74.4153 53.4437 74.095 53.2035 73.8014C52.99 73.5078 52.7097 73.3077 52.3628 73.2009L50.8014 72.8006C50.4544 72.6938 50.2009 72.4936 50.0408 72.2C49.8806 71.9064 49.8406 71.5862 49.9207 71.2392Z" fill="#CE7C06"/>
<path d="M47.3184 72.6005L49.3601 65.114C49.4402 64.767 49.627 64.5135 49.9206 64.3533C50.2409 64.1665 50.5612 64.1265 50.8815 64.2332L52.2827 64.5935C52.603 64.6736 52.9366 64.6469 53.2836 64.5135C53.6305 64.3533 53.8841 64.1131 54.0442 63.7928C55.5922 61.0705 57.7541 58.6951 60.5299 56.6666C60.8235 56.4531 61.1437 56.373 61.4907 56.4264C61.8377 56.5065 62.1179 56.68 62.3315 56.9469L66.8554 62.3916C67.0689 62.6852 67.1623 63.0055 67.1356 63.3525C67.1356 63.6994 66.9888 63.9797 66.6953 64.1932C65.1472 65.6344 63.9462 67.0357 63.0921 68.3968C62.238 69.758 61.6375 71.0658 61.2905 72.3203C61.2105 72.6939 61.1037 73.121 60.9703 73.6014C60.8635 74.1085 60.8101 74.5889 60.8101 75.0427C60.8101 75.5231 60.9035 75.9368 61.0904 76.2837C61.2772 76.6574 61.6108 76.911 62.0912 77.0444C62.5717 77.1512 63.0921 76.9109 63.6526 76.3238C64.2131 75.7099 64.7469 74.9759 65.254 74.1218C65.7878 73.2944 66.2415 72.4804 66.6152 71.6797C66.9888 70.879 67.2291 70.3585 67.3358 70.1183C67.8963 68.9707 68.6036 67.743 69.4577 66.4351C70.2851 65.1006 71.326 63.9129 72.5804 62.872C73.8081 61.8578 75.2627 61.1105 76.9442 60.6301C78.599 60.1764 80.5073 60.2431 82.6692 60.8303C85.9787 61.711 88.3008 63.2991 89.6353 65.5944C90.9698 67.8897 91.4902 70.6255 91.1966 73.8016C91.1699 74.1752 91.2634 74.5088 91.4769 74.8024C91.6904 75.1227 91.9573 75.3229 92.2776 75.403L93.7589 75.8033C94.1058 75.9101 94.3594 76.1102 94.5195 76.4038C94.7064 76.6974 94.7464 77.0177 94.6396 77.3647L92.6379 84.8512C92.5311 85.1715 92.331 85.425 92.0374 85.6119C91.7438 85.772 91.4235 85.812 91.0765 85.732L88.9947 85.1715C88.6744 85.0914 88.3275 85.1181 87.9538 85.2516C87.5801 85.385 87.2999 85.5985 87.1131 85.8921C86.2056 87.3867 85.178 88.7079 84.0304 89.8556C82.9094 91.0032 81.735 92.0041 80.5073 92.8582C80.2137 93.0717 79.8801 93.1518 79.5064 93.0984C79.1328 93.0183 78.8392 92.8448 78.6257 92.5779L74.0617 87.1732C73.8482 86.8796 73.7547 86.5594 73.7814 86.2124C73.8081 85.8654 73.9416 85.5718 74.1818 85.3316C75.8633 83.837 77.2778 82.289 78.4255 80.6876C79.5998 79.0862 80.3872 77.5115 80.7876 75.9635C81.1879 74.4688 81.2813 73.2811 81.0678 72.4003C80.8543 71.4929 80.3338 70.9324 79.5064 70.7189C79.0527 70.5854 78.6524 70.6521 78.3054 70.919C77.9851 71.1859 77.6648 71.5863 77.3446 72.1201C77.0243 72.6272 76.704 73.2411 76.3837 73.9617C76.0901 74.6556 75.7565 75.3763 75.3828 76.1236C75.0359 76.8175 74.6355 77.6449 74.1818 78.6057C73.7281 79.5399 73.1809 80.4874 72.5404 81.4482C71.9265 82.3824 71.2059 83.2898 70.3785 84.1706C69.5511 85.0514 68.6036 85.7854 67.536 86.3725C66.4951 86.9597 65.3207 87.3334 64.0129 87.4935C62.7051 87.6803 61.2639 87.5602 59.6891 87.1332C58.1411 86.7061 56.82 86.119 55.7257 85.3717C54.6581 84.6243 53.7773 83.7569 53.0834 82.7694C52.3894 81.8086 51.8823 80.7677 51.5621 79.6467C51.2418 78.5257 51.0549 77.3513 51.0016 76.1236C50.9749 75.7766 50.8548 75.4563 50.6413 75.1628C50.401 74.8692 50.1208 74.669 49.8005 74.5622L48.1991 74.1619C47.8788 74.0551 47.6253 73.8549 47.4385 73.5614C47.2783 73.2678 47.2383 72.9475 47.3184 72.6005Z" fill="#F9A825"/>
</svg>
